<svg xmlns="http://www.w3.org/2000/svg" viewBox="0 0 720 80" width="720" height="80" preserveAspectRatio="xMidYMid meet">
  <!-- PLACEHOLDER divider — replace frontend/public/divider-placeholder.svg to swap -->
  <rect width="720" height="80" fill="#efe3c6"/>
  <g fill="none" stroke="#b0842c" stroke-width="1.2">
    <line x1="20" y1="10" x2="700" y2="10"/>
    <line x1="20" y1="70" x2="700" y2="70"/>
    <line x1="30" y1="40" x2="296" y2="40"/>
    <line x1="424" y1="40" x2="690" y2="40"/>
  </g>
  <g transform="translate(360 40)">
    <circle r="18" fill="none" stroke="#b0842c" stroke-width="1.2"/>
    <circle r="13" fill="none" stroke="#b0842c" stroke-width="0.8"/>
    <rect x="-8" y="-8" width="16" height="16" fill="#b0842c" transform="rotate(45)"/>
    <rect x="-4" y="-4" width="8" height="8" fill="#1c3f8f" transform="rotate(45)"/>
    <circle r="2.6" fill="#b0311c"/>
  </g>
  <g fill="#b0842c">
    <rect x="296" y="34" width="12" height="12" transform="rotate(45 302 40)"/>
    <rect x="412" y="34" width="12" height="12" transform="rotate(45 418 40)"/>
    <rect x="56" y="36" width="8" height="8" transform="rotate(45 60 40)"/>
    <rect x="656" y="36" width="8" height="8" transform="rotate(45 660 40)"/>
    <circle cx="150" cy="40" r="2"/>
    <circle cx="570" cy="40" r="2"/>
    <circle cx="240" cy="40" r="2"/>
    <circle cx="480" cy="40" r="2"/>
  </g>
</svg>
